<svg id="SvgjsSvg1113" width="758.25" height="513.5" xmlns="http://www.w3.org/2000/svg" version="1.1" xmlns:xlink="http://www.w3.org/1999/xlink" xmlns:svgjs="http://svgjs.com/svgjs"><defs id="SvgjsDefs1114"><pattern patternUnits="userSpaceOnUse" id="pattern_mark_0" width="300" height="300"><text x="150" y="100" fill="rgba(229,229,229,0.8)" font-size="18" transform="rotate(-45, 150, 150)" style="dominant-baseline: middle; text-anchor: middle;"></text></pattern><pattern patternUnits="userSpaceOnUse" id="pattern_mark_1" width="300" height="300"><text x="150" y="200" fill="rgba(229,229,229,0.8)" font-size="18" transform="rotate(-45, 150, 150)" style="dominant-baseline: middle; text-anchor: middle;"></text></pattern><marker id="SvgjsMarker1184" markerWidth="14" markerHeight="10" refX="10" refY="5" viewBox="0 0 14 10" orient="auto" markerUnits="userSpaceOnUse" stroke-dasharray="0,0"><path id="SvgjsPath1185" d="M0,0 L14,5 L0,10 L0,0" fill="#323232" stroke="#323232" stroke-width="1"></path></marker><marker id="SvgjsMarker1188" markerWidth="14" markerHeight="10" refX="10" refY="5" viewBox="0 0 14 10" orient="auto" markerUnits="userSpaceOnUse" stroke-dasharray="0,0"><path id="SvgjsPath1189" d="M0,0 L14,5 L0,10 L0,0" fill="#323232" stroke="#323232" stroke-width="1"></path></marker><marker id="SvgjsMarker1192" markerWidth="14" markerHeight="10" refX="10" refY="5" viewBox="0 0 14 10" orient="auto" markerUnits="userSpaceOnUse" stroke-dasharray="0,0"><path id="SvgjsPath1193" d="M0,0 L14,5 L0,10 L0,0" fill="#323232" stroke="#323232" stroke-width="1"></path></marker><marker id="SvgjsMarker1206" markerWidth="14" markerHeight="10" refX="10" refY="5" viewBox="0 0 14 10" orient="auto" markerUnits="userSpaceOnUse" stroke-dasharray="0,0"><path id="SvgjsPath1207" d="M0,0 L14,5 L0,10 L0,0" fill="#323232" stroke="#323232" stroke-width="1"></path></marker><marker id="SvgjsMarker1218" markerWidth="14" markerHeight="10" refX="10" refY="5" viewBox="0 0 14 10" orient="auto" markerUnits="userSpaceOnUse" stroke-dasharray="0,0"><path id="SvgjsPath1219" d="M0,0 L14,5 L0,10 L0,0" fill="#323232" stroke="#323232" stroke-width="1"></path></marker></defs><rect id="svgbackgroundid" width="758.25" height="513.5" fill="transparent"></rect><rect id="SvgjsRect1116" width="758.25" height="513.5" fill="url(#pattern_mark_0)"></rect><rect id="SvgjsRect1117" width="758.25" height="513.5" fill="url(#pattern_mark_1)"></rect><g id="SvgjsG1118" transform="translate(25,25)"><path id="SvgjsPath1119" d="M 0 4Q 0 0 4 0L 261 0Q 265 0 265 4L 265 100.5Q 265 104.5 261 104.5L 4 104.5Q 0 104.5 0 100.5Z" stroke="rgba(33,41,48,1)" stroke-width="2" fill-opacity="1" fill="#ffffff"></path><path id="SvgjsPath1120" d="M 0 30L 265 30" stroke="rgba(33,41,48,1)" stroke-width="2" fill="none"></path><path id="SvgjsPath1121" d="M 0 0L 265 0L 265 104.5L 0 104.5Z" stroke="none" fill="none"></path><g id="SvgjsG1122"><text id="SvgjsText1123" font-family="微软雅黑" text-anchor="middle" font-size="13px" width="245px" fill="#323232" font-weight="700" align="middle" lineHeight="125%" anchor="middle" family="微软雅黑" size="13px" weight="700" font-style="" opacity="1" y="4.375" transform="rotate(0)"><tspan id="SvgjsTspan1124" dy="16" x="132.5"><tspan id="SvgjsTspan1125" style="text-decoration:;">In-code schema</tspan></tspan></text></g><g id="SvgjsG1126"><text id="SvgjsText1127" font-family="微软雅黑" text-anchor="start" font-size="13px" width="245px" fill="#323232" font-weight="400" align="middle" lineHeight="125%" anchor="start" family="微软雅黑" size="13px" weight="400" font-style="" opacity="1" y="40.125" transform="rotate(0)"><tspan id="SvgjsTspan1128" dy="16" x="10"><tspan id="SvgjsTspan1129" style="text-decoration:;">- `dataclass`-decorated config schema</tspan></tspan><tspan id="SvgjsTspan1130" dy="16" x="10"><tspan id="SvgjsTspan1131" style="text-decoration:;">   - with type hints</tspan></tspan><tspan id="SvgjsTspan1132" dy="16" x="10"><tspan id="SvgjsTspan1133" style="text-decoration:;"> - </tspan><tspan id="SvgjsTspan1134" style="text-decoration:;font-weight: bold;">hydra.ConfigStore</tspan><tspan id="SvgjsTspan1135" style="text-decoration:;"> initialization</tspan></tspan></text></g></g><g id="SvgjsG1136" transform="translate(25,212.5)"><path id="SvgjsPath1137" d="M 0 4Q 0 0 4 0L 296 0Q 300 0 300 4L 300 91Q 300 95 296 95L 4 95Q 0 95 0 91Z" stroke="rgba(33,41,48,1)" stroke-width="2" fill-opacity="1" fill="#ffffff"></path><path id="SvgjsPath1138" d="M 0 30L 300 30" stroke="rgba(33,41,48,1)" stroke-width="2" fill="none"></path><path id="SvgjsPath1139" d="M 0 0L 300 0L 300 95L 0 95Z" stroke="none" fill="none"></path><g id="SvgjsG1140"><text id="SvgjsText1141" font-family="微软雅黑" text-anchor="middle" font-size="13px" width="280px" fill="#323232" font-weight="700" align="middle" lineHeight="125%" anchor="middle" family="微软雅黑" size="13px" weight="700" font-style="" opacity="1" y="4.375" transform="rotate(0)"><tspan id="SvgjsTspan1142" dy="16" x="150"><tspan id="SvgjsTspan1143" style="text-decoration:;">In-file default values</tspan></tspan></text></g><g id="SvgjsG1144"><text id="SvgjsText1145" font-family="微软雅黑" text-anchor="start" font-size="13px" width="280px" fill="#323232" font-weight="400" align="middle" lineHeight="125%" anchor="start" family="微软雅黑" size="13px" weight="400" font-style="" opacity="1" y="27.375" transform="rotate(0)"><tspan id="SvgjsTspan1146" dy="16" x="10"><tspan id="SvgjsTspan1147" style="text-decoration:;">- directory structure corresponding to the </tspan></tspan><tspan id="SvgjsTspan1148" dy="16" x="10"><tspan id="SvgjsTspan1149" style="text-decoration:;">config schema structure</tspan></tspan><tspan id="SvgjsTspan1150" dy="16" x="10"><tspan id="SvgjsTspan1151" style="text-decoration:;">- leaf-node YAML files for default </tspan></tspan><tspan id="SvgjsTspan1152" dy="16" x="10"><tspan id="SvgjsTspan1153" style="text-decoration:;">configurations that come with the library</tspan></tspan></text></g></g><g id="SvgjsG1154" transform="translate(25,368.5)"><path id="SvgjsPath1155" d="M 0 4Q 0 0 4 0L 261 0Q 265 0 265 4L 265 116Q 265 120 261 120L 4 120Q 0 120 0 116Z" stroke="rgba(33,41,48,1)" stroke-width="2" fill-opacity="1" fill="#ffffff"></path><path id="SvgjsPath1156" d="M 0 30L 265 30" stroke="rgba(33,41,48,1)" stroke-width="2" fill="none"></path><path id="SvgjsPath1157" d="M 0 0L 265 0L 265 120L 0 120Z" stroke="none" fill="none"></path><g id="SvgjsG1158"><text id="SvgjsText1159" font-family="微软雅黑" text-anchor="middle" font-size="13px" width="245px" fill="#323232" font-weight="700" align="middle" lineHeight="125%" anchor="middle" family="微软雅黑" size="13px" weight="700" font-style="" opacity="1" y="4.375" transform="rotate(0)"><tspan id="SvgjsTspan1160" dy="16" x="132.5"><tspan id="SvgjsTspan1161" style="text-decoration:;">Command-line adjustments</tspan></tspan></text></g><g id="SvgjsG1162"><text id="SvgjsText1163" font-family="微软雅黑" text-anchor="start" font-size="13px" width="245px" fill="#323232" font-weight="400" align="middle" lineHeight="125%" anchor="start" family="微软雅黑" size="13px" weight="400" font-style="" opacity="1" y="39.875" transform="rotate(0)"><tspan id="SvgjsTspan1164" dy="16" x="10"><tspan id="SvgjsTspan1165" style="text-decoration:;">- User input for customized </tspan></tspan><tspan id="SvgjsTspan1166" dy="16" x="10"><tspan id="SvgjsTspan1167" style="text-decoration:;">configuration</tspan></tspan><tspan id="SvgjsTspan1168" dy="16" x="10"><tspan id="SvgjsTspan1169" style="text-decoration:;">- Multi-run support</tspan></tspan><tspan id="SvgjsTspan1170" dy="16" x="10"><tspan id="SvgjsTspan1171" style="text-decoration:;">- (Optional future) Automated HPO</tspan></tspan></text></g></g><g id="SvgjsG1172" transform="translate(385,225)"><path id="SvgjsPath1173" d="M 0 0L 100 0L 100 70L 0 70Z" stroke="rgba(33,41,48,1)" stroke-width="2" fill-opacity="1" fill="#ffffff"></path><g id="SvgjsG1174"><text id="SvgjsText1175" font-family="微软雅黑" text-anchor="middle" font-size="13px" width="80px" fill="#323232" font-weight="400" align="middle" lineHeight="125%" anchor="middle" family="微软雅黑" size="13px" weight="400" font-style="" opacity="1" y="7.875" transform="rotate(0)"><tspan id="SvgjsTspan1176" dy="16" x="50"><tspan id="SvgjsTspan1177" style="text-decoration:;">Hydra </tspan></tspan><tspan id="SvgjsTspan1178" dy="16" x="50"><tspan id="SvgjsTspan1179" style="text-decoration:;">configuratio</tspan></tspan><tspan id="SvgjsTspan1180" dy="16" x="50"><tspan id="SvgjsTspan1181" style="text-decoration:;">n parser</tspan></tspan></text></g></g><g id="SvgjsG1182"><path id="SvgjsPath1183" d="M291 77.25L337.5 77.25L337.5 260L381.4 260" stroke="#323232" stroke-width="2" fill="none" marker-end="url(#SvgjsMarker1184)"></path></g><g id="SvgjsG1186"><path id="SvgjsPath1187" d="M326 260L355 260L355 260L381.4 260" stroke="#323232" stroke-width="2" fill="none" marker-end="url(#SvgjsMarker1188)"></path></g><g id="SvgjsG1190"><path id="SvgjsPath1191" d="M291 428.5L337.5 428.5L337.5 260L381.4 260" stroke="#323232" stroke-width="2" fill="none" marker-end="url(#SvgjsMarker1192)"></path></g><g id="SvgjsG1194" transform="translate(518,175.75)"><path id="SvgjsPath1195" d="M 0 4Q 0 0 4 0L 208 0Q 212 0 212 4L 212 164.5Q 212 168.5 208 168.5L 4 168.5Q 0 168.5 0 164.5Z" stroke="rgba(33,41,48,1)" stroke-width="2" fill-opacity="1" fill="#ffffff"></path><g id="SvgjsG1196"><text id="SvgjsText1197" font-family="微软雅黑" text-anchor="middle" font-size="16px" width="192px" fill="#323232" font-weight="400" align="middle" lineHeight="125%" anchor="middle" family="微软雅黑" size="16px" weight="400" font-style="" opacity="1" y="50.25" transform="rotate(0)"><tspan id="SvgjsTspan1198" dy="20" x="106"><tspan id="SvgjsTspan1199" style="text-decoration:;">Runtime configuration </tspan></tspan><tspan id="SvgjsTspan1200" dy="20" x="106"><tspan id="SvgjsTspan1201" style="text-decoration:;">data structure</tspan></tspan><tspan id="SvgjsTspan1202" dy="20" x="106"><tspan id="SvgjsTspan1203" style="text-decoration:;font-style: italic;">hydra.args</tspan></tspan></text></g></g><g id="SvgjsG1204"><path id="SvgjsPath1205" d="M486 260L501.5 260L501.5 260L514.4 260" stroke="#323232" stroke-width="2" fill="none" marker-end="url(#SvgjsMarker1206)"></path></g><g id="SvgjsG1208" transform="translate(515.25,398.5)"><path id="SvgjsPath1209" d="M 0 0L 217.5 0L 217.5 78L 0 78Z" stroke="rgba(33,41,48,1)" stroke-width="2" fill-opacity="1" fill="#ffffff"></path><g id="SvgjsG1210"><text id="SvgjsText1211" font-family="微软雅黑" text-anchor="middle" font-size="18px" width="198px" fill="#323232" font-weight="400" align="middle" lineHeight="125%" anchor="middle" family="微软雅黑" size="18px" weight="400" font-style="" opacity="1" y="12.25" transform="rotate(0)"><tspan id="SvgjsTspan1212" dy="22" x="109"><tspan id="SvgjsTspan1213" style="text-decoration:;">internal config data </tspan></tspan><tspan id="SvgjsTspan1214" dy="22" x="109"><tspan id="SvgjsTspan1215" style="text-decoration:;">structure</tspan></tspan></text></g></g><g id="SvgjsG1216"><path id="SvgjsPath1217" d="M624 345.25L624 394.9" stroke="#323232" stroke-width="2" fill="none" marker-end="url(#SvgjsMarker1218)"></path></g></svg>