<svg id="SvgjsSvg1006" width="1957.7382114955358" height="969.0625585828509" xmlns="http://www.w3.org/2000/svg" version="1.1" xmlns:xlink="http://www.w3.org/1999/xlink" xmlns:svgjs="http://svgjs.com/svgjs"><defs id="SvgjsDefs1007"><pattern patternUnits="userSpaceOnUse" id="pattern_mark_0" width="300" height="300"><text x="150" y="100" fill="rgba(229,229,229,0.8)" font-size="18" transform="rotate(-45, 150, 150)" style="dominant-baseline: middle; text-anchor: middle;"></text></pattern><pattern patternUnits="userSpaceOnUse" id="pattern_mark_1" width="300" height="300"><text x="150" y="200" fill="rgba(229,229,229,0.8)" font-size="18" transform="rotate(-45, 150, 150)" style="dominant-baseline: middle; text-anchor: middle;"></text></pattern><pattern id="SvgjsPattern1069" x="0" y="0" width="116" height="264" patternUnits="userSpaceOnUse"><image id="SvgjsImage1070" xlink:href="https://cdn.processon.com/64422774edbdf8763c4972f3?e=1682060676&amp;token=trhI0BY8QfVrIGn9nENop6JAc6l5nZuxhjQ62UfM:HN1Y8u-WT5aJgbk7PhGvkG0H-Vk=" width="116" height="264" preserveAspectRatio="none" crossOrigin="anonymous" x="0" y="0"></image></pattern><marker id="SvgjsMarker1097" markerWidth="14" markerHeight="10" refX="10" refY="5" viewBox="0 0 14 10" orient="auto" markerUnits="userSpaceOnUse" stroke-dasharray="0,0"><path id="SvgjsPath1098" d="M0,0 L14,5 L0,10 L0,0" fill="#323232" stroke="#323232" stroke-width="1"></path></marker><marker id="SvgjsMarker1101" markerWidth="14" markerHeight="10" refX="10" refY="5" viewBox="0 0 14 10" orient="auto" markerUnits="userSpaceOnUse" stroke-dasharray="0,0"><path id="SvgjsPath1102" d="M0,0 L14,5 L0,10 L0,0" fill="#323232" stroke="#323232" stroke-width="1"></path></marker><marker id="SvgjsMarker1143" markerWidth="14" markerHeight="10" refX="10" refY="5" viewBox="0 0 14 10" orient="auto" markerUnits="userSpaceOnUse" stroke-dasharray="0,0"><path id="SvgjsPath1144" d="M0,0 L14,5 L0,10 L0,0" fill="#323232" stroke="#323232" stroke-width="1"></path></marker><marker id="SvgjsMarker1151" markerWidth="14" markerHeight="10" refX="10" refY="5" viewBox="0 0 14 10" orient="auto" markerUnits="userSpaceOnUse" stroke-dasharray="0,0"><path id="SvgjsPath1152" d="M0,0 L14,5 L0,10 L0,0" fill="#323232" stroke="#323232" stroke-width="1"></path></marker><marker id="SvgjsMarker1161" markerWidth="14" markerHeight="10" refX="10" refY="5" viewBox="0 0 14 10" orient="auto" markerUnits="userSpaceOnUse" stroke-dasharray="0,0"><path id="SvgjsPath1162" d="M0,0 L14,5 L0,10 L0,0" fill="#323232" stroke="#323232" stroke-width="1"></path></marker><marker id="SvgjsMarker1171" markerWidth="14" markerHeight="10" refX="10" refY="5" viewBox="0 0 14 10" orient="auto" markerUnits="userSpaceOnUse" stroke-dasharray="0,0"><path id="SvgjsPath1172" d="M0,0 L14,5 L0,10 L0,0" fill="#323232" stroke="#323232" stroke-width="1"></path></marker><marker id="SvgjsMarker1179" markerWidth="14" markerHeight="10" refX="10" refY="5" viewBox="0 0 14 10" orient="auto" markerUnits="userSpaceOnUse" stroke-dasharray="0,0"><path id="SvgjsPath1180" d="M0,0 L14,5 L0,10 L0,0" fill="#323232" stroke="#323232" stroke-width="1"></path></marker><marker id="SvgjsMarker1183" markerWidth="14" markerHeight="10" refX="10" refY="5" viewBox="0 0 14 10" orient="auto" markerUnits="userSpaceOnUse" stroke-dasharray="0,0"><path id="SvgjsPath1184" d="M0,0 L14,5 L0,10 L0,0" fill="#323232" stroke="#323232" stroke-width="1"></path></marker><marker id="SvgjsMarker1187" markerWidth="14" markerHeight="10" refX="10" refY="5" viewBox="0 0 14 10" orient="auto" markerUnits="userSpaceOnUse" stroke-dasharray="0,0"><path id="SvgjsPath1188" d="M0,0 L14,5 L0,10 L0,0" fill="#323232" stroke="#323232" stroke-width="1"></path></marker><marker id="SvgjsMarker1191" markerWidth="14" markerHeight="10" refX="10" refY="5" viewBox="0 0 14 10" orient="auto" markerUnits="userSpaceOnUse" stroke-dasharray="0,0"><path id="SvgjsPath1192" d="M0,0 L14,5 L0,10 L0,0" fill="#323232" stroke="#323232" stroke-width="1"></path></marker><marker id="SvgjsMarker1211" markerWidth="14" markerHeight="10" refX="10" refY="5" viewBox="0 0 14 10" orient="auto" markerUnits="userSpaceOnUse" stroke-dasharray="0,0"><path id="SvgjsPath1212" d="M0,0 L14,5 L0,10 L0,0" fill="#323232" stroke="#323232" stroke-width="1"></path></marker><marker id="SvgjsMarker1269" markerWidth="14" markerHeight="10" refX="10" refY="5" viewBox="0 0 14 10" orient="auto" markerUnits="userSpaceOnUse" stroke-dasharray="0,0"><path id="SvgjsPath1270" d="M0,0 L14,5 L0,10 L0,0" fill="#323232" stroke="#323232" stroke-width="1"></path></marker><marker id="SvgjsMarker1287" markerWidth="14" markerHeight="10" refX="10" refY="5" viewBox="0 0 14 10" orient="auto" markerUnits="userSpaceOnUse" stroke-dasharray="0,0"><path id="SvgjsPath1288" d="M0,0 L14,5 L0,10 L0,0" fill="#323232" stroke="#323232" stroke-width="1"></path></marker><marker id="SvgjsMarker1291" markerWidth="14" markerHeight="10" refX="10" refY="5" viewBox="0 0 14 10" orient="auto" markerUnits="userSpaceOnUse" stroke-dasharray="0,0"><path id="SvgjsPath1292" d="M0,0 L14,5 L0,10 L0,0" fill="#323232" stroke="#323232" stroke-width="1"></path></marker><marker id="SvgjsMarker1295" markerWidth="14" markerHeight="10" refX="10" refY="5" viewBox="0 0 14 10" orient="auto" markerUnits="userSpaceOnUse" stroke-dasharray="0,0"><path id="SvgjsPath1296" d="M0,0 L14,5 L0,10 L0,0" fill="#323232" stroke="#323232" stroke-width="1"></path></marker><marker id="SvgjsMarker1315" markerWidth="14" markerHeight="10" refX="10" refY="5" viewBox="0 0 14 10" orient="auto" markerUnits="userSpaceOnUse" stroke-dasharray="0,0"><path id="SvgjsPath1316" d="M0,0 L14,5 L0,10 L0,0" fill="#323232" stroke="#323232" stroke-width="1"></path></marker><marker id="SvgjsMarker1319" markerWidth="14" markerHeight="10" refX="10" refY="5" viewBox="0 0 14 10" orient="auto" markerUnits="userSpaceOnUse" stroke-dasharray="0,0"><path id="SvgjsPath1320" d="M0,0 L14,5 L0,10 L0,0" fill="#323232" stroke="#323232" stroke-width="1"></path></marker><marker id="SvgjsMarker1323" markerWidth="14" markerHeight="10" refX="10" refY="5" viewBox="0 0 14 10" orient="auto" markerUnits="userSpaceOnUse" stroke-dasharray="0,0"><path id="SvgjsPath1324" d="M0,0 L14,5 L0,10 L0,0" fill="#323232" stroke="#323232" stroke-width="1"></path></marker><marker id="SvgjsMarker1347" markerWidth="14" markerHeight="10" refX="10" refY="5" viewBox="0 0 14 10" orient="auto" markerUnits="userSpaceOnUse" stroke-dasharray="0,0"><path id="SvgjsPath1348" d="M0,0 L14,5 L0,10 L0,0" fill="#323232" stroke="#323232" stroke-width="1"></path></marker><marker id="SvgjsMarker1351" markerWidth="14" markerHeight="10" refX="10" refY="5" viewBox="0 0 14 10" orient="auto" markerUnits="userSpaceOnUse" stroke-dasharray="0,0"><path id="SvgjsPath1352" d="M0,0 L14,5 L0,10 L0,0" fill="#323232" stroke="#323232" stroke-width="1"></path></marker><marker id="SvgjsMarker1355" markerWidth="14" markerHeight="10" refX="10" refY="5" viewBox="0 0 14 10" orient="auto" markerUnits="userSpaceOnUse" stroke-dasharray="0,0"><path id="SvgjsPath1356" d="M0,0 L14,5 L0,10 L0,0" fill="#323232" stroke="#323232" stroke-width="1"></path></marker></defs><rect id="svgbackgroundid" width="1957.7382114955358" height="969.0625585828509" fill="transparent"></rect><rect id="SvgjsRect1009" width="1957.7382114955358" height="969.0625585828509" fill="url(#pattern_mark_0)"></rect><rect id="SvgjsRect1010" width="1957.7382114955358" height="969.0625585828509" fill="url(#pattern_mark_1)"></rect><g id="SvgjsG1011" transform="translate(871.2342032967033,116.9910717691694)"><path id="SvgjsPath1012" d="M 0 4Q 0 0 4 0L 302.8461538461537 0Q 306.8461538461537 0 306.8461538461537 4L 306.8461538461537 143Q 306.8461538461537 147 302.8461538461537 147L 4 147Q 0 147 0 143Z" stroke="rgba(33,41,48,1)" stroke-width="2" fill-opacity="1" fill="#ffffff"></path><path id="SvgjsPath1013" d="M 0 30L 306.8461538461537 30" stroke="rgba(33,41,48,1)" stroke-width="2" fill="none"></path><path id="SvgjsPath1014" d="M 0 0L 306.8461538461537 0L 306.8461538461537 147L 0 147Z" stroke="none" fill="none"></path><g id="SvgjsG1015"><text id="SvgjsText1016" font-family="微软雅黑" text-anchor="middle" font-size="13px" width="287px" fill="#323232" font-weight="700" align="middle" lineHeight="125%" anchor="middle" family="微软雅黑" size="13px" weight="700" font-style="" opacity="1" y="4.375" transform="rotate(0)"><tspan id="SvgjsTspan1017" dy="16" x="153.5"><tspan id="SvgjsTspan1018" style="text-decoration:;">StorageBackend</tspan></tspan></text></g><g id="SvgjsG1019"><text id="SvgjsText1020" font-family="微软雅黑" text-anchor="start" font-size="13px" width="287px" fill="#323232" font-weight="400" align="middle" lineHeight="125%" anchor="start" family="微软雅黑" size="13px" weight="400" font-style="" opacity="1" y="45.375" transform="rotate(0)"><tspan id="SvgjsTspan1021" dy="16" x="10"><tspan id="SvgjsTspan1022" style="text-decoration:;">读取静态原始因子csv文件</tspan></tspan><tspan id="SvgjsTspan1023" dy="16" x="10"><tspan id="SvgjsTspan1024" style="text-decoration:;">时间片、股票池（行列）slicing</tspan></tspan><tspan id="SvgjsTspan1025" dy="16" x="10"><tspan id="SvgjsTspan1026" style="text-decoration:;">数值预处理、mask、缺失值处理</tspan></tspan><tspan id="SvgjsTspan1027" dy="16" x="10"><tspan id="SvgjsTspan1028" style="text-decoration:;">- get(factor_name, instruments, start_date, </tspan></tspan><tspan id="SvgjsTspan1029" dy="16" x="10"><tspan id="SvgjsTspan1030" style="text-decoration:;">end_date, backend) -&gt; pd.DataFrame</tspan></tspan></text></g></g><g id="SvgjsG1031" transform="translate(25.00343406593312,88.62743540553305)"><path id="SvgjsPath1032" d="M 8 8Q 8 0 16 0L 166 0Q 174 0 174 8L 174 113Q 174 121 166 121L 166 121" stroke="rgba(33,41,48,1)" stroke-width="2" fill-opacity="1" fill="#ffffff"></path><path id="SvgjsPath1033" d="M 0 16Q 0 8 8 8L 158 8Q 166 8 166 16L 166 121Q 166 129 158 129L 8 129Q 0 129 0 121L 0 16Z" stroke="rgba(33,41,48,1)" stroke-width="2" fill-opacity="1" fill="#ffffff"></path><path id="SvgjsPath1034" d="M 0 4Q 0 0 4 0L 170 0Q 174 0 174 4L 174 125Q 174 129 170 129L 4 129Q 0 129 0 125Z" stroke="none" fill="none"></path><g id="SvgjsG1035"><text id="SvgjsText1036" font-family="微软雅黑" text-anchor="middle" font-size="13px" width="134px" fill="#323232" font-weight="400" align="middle" lineHeight="125%" anchor="middle" family="微软雅黑" size="13px" weight="400" font-style="" opacity="1" y="41.375" transform="rotate(0)"><tspan id="SvgjsTspan1037" dy="16" x="83"><tspan id="SvgjsTspan1038" style="text-decoration:;">数据源</tspan></tspan><tspan id="SvgjsTspan1039" dy="16" x="83"><tspan id="SvgjsTspan1040" style="text-decoration:;">例如：ideadata、</tspan></tspan><tspan id="SvgjsTspan1041" dy="16" x="83"><tspan id="SvgjsTspan1042" style="text-decoration:;">SQL、yahooquery</tspan></tspan></text></g></g><g id="SvgjsG1043" transform="translate(248.580357142857,95.26379904189668)"><path id="SvgjsPath1044" d="M 0 4Q 0 0 4 0L 185 0Q 189 0 189 4L 189 111.72727272727273Q 189 115.72727272727273 185 115.72727272727273L 4 115.72727272727273Q 0 115.72727272727273 0 111.72727272727273Z" stroke="rgba(33,41,48,1)" stroke-width="2" fill-opacity="1" fill="#ffffff"></path><path id="SvgjsPath1045" d="M 0 30L 189 30" stroke="rgba(33,41,48,1)" stroke-width="2" fill="none"></path><path id="SvgjsPath1046" d="M 0 0L 189 0L 189 115.72727272727273L 0 115.72727272727273Z" stroke="none" fill="none"></path><g id="SvgjsG1047"><text id="SvgjsText1048" font-family="微软雅黑" text-anchor="middle" font-size="13px" width="169px" fill="#323232" font-weight="700" align="middle" lineHeight="125%" anchor="middle" family="微软雅黑" size="13px" weight="700" font-style="" opacity="1" y="4.375" transform="rotate(0)"><tspan id="SvgjsTspan1049" dy="16" x="94.5"><tspan id="SvgjsTspan1050" style="text-decoration:;">Source Adaptor</tspan></tspan></text></g><g id="SvgjsG1051"><text id="SvgjsText1052" font-family="微软雅黑" text-anchor="start" font-size="13px" width="169px" fill="#323232" font-weight="400" align="middle" lineHeight="125%" anchor="start" family="微软雅黑" size="13px" weight="400" font-style="" opacity="1" y="37.73863636363637" transform="rotate(0)"><tspan id="SvgjsTspan1053" dy="16" x="10"><tspan id="SvgjsTspan1054" style="text-decoration:;">定期抓取数据（结合</tspan></tspan><tspan id="SvgjsTspan1055" dy="16" x="10"><tspan id="SvgjsTspan1056" style="text-decoration:;">crontab）</tspan></tspan><tspan id="SvgjsTspan1057" dy="16" x="10"><tspan id="SvgjsTspan1058" style="text-decoration:;">数据整理（存内）</tspan></tspan><tspan id="SvgjsTspan1059" dy="16" x="10"><tspan id="SvgjsTspan1060" style="text-decoration:;">数据导出（dump to disk）</tspan></tspan></text></g></g><g id="SvgjsG1061" transform="translate(472.1572802197803,24.9910717691694)"><path id="SvgjsPath1062" d="M 0 4Q 0 0 4 0L 142 0Q 146 0 146 4L 146 289Q 146 293 142 293L 4 293Q 0 293 0 289Z" stroke="rgba(33,41,48,1)" stroke-width="2" fill-opacity="1" fill="#ffffff"></path><g id="SvgjsG1063"><text id="SvgjsText1064" font-family="微软雅黑" text-anchor="middle" font-size="15px" width="126px" fill="#323232" font-weight="700" align="top" lineHeight="125%" anchor="middle" family="微软雅黑" size="15px" weight="700" font-style="" opacity="1" y="-2.875" transform="rotate(0)"><tspan id="SvgjsTspan1065" dy="18" x="73"><tspan id="SvgjsTspan1066" style="text-decoration:;">Disk Storage</tspan></tspan></text></g></g><g id="SvgjsG1067" transform="translate(487.1572802197808,46.9910717691694)"><path id="SvgjsPath1068" d="M 0 0L 116 0L 116 264L 0 264Z" stroke="none" fill="url(#SvgjsPattern1069)"></path></g><g id="SvgjsG1071" transform="translate(472.1572802197803,380.7603025384002)"><path id="SvgjsPath1072" d="M 0 4Q 0 0 4 0L 102 0Q 106 0 106 4L 106 56Q 106 60 102 60L 4 60Q 0 60 0 56Z" stroke="rgba(33,41,48,1)" stroke-width="2" fill-opacity="1" fill="#ffffff"></path><path id="SvgjsPath1073" d="M 0 30L 106 30" stroke="rgba(33,41,48,1)" stroke-width="2" fill="none"></path><path id="SvgjsPath1074" d="M 0 0L 106 0L 106 60L 0 60Z" stroke="none" fill="none"></path><g id="SvgjsG1075"><text id="SvgjsText1076" font-family="微软雅黑" text-anchor="middle" font-size="13px" width="86px" fill="#323232" font-weight="700" align="middle" lineHeight="125%" anchor="middle" family="微软雅黑" size="13px" weight="700" font-style="" opacity="1" y="4.375" transform="rotate(0)"><tspan id="SvgjsTspan1077" dy="16" x="53"><tspan id="SvgjsTspan1078" style="text-decoration:;">FactorHub</tspan></tspan></text></g><g id="SvgjsG1079"><text id="SvgjsText1080" font-family="微软雅黑" text-anchor="start" font-size="13px" width="86px" fill="#323232" font-weight="400" align="middle" lineHeight="125%" anchor="start" family="微软雅黑" size="13px" weight="400" font-style="" opacity="1" y="34.375" transform="rotate(0)"><tspan id="SvgjsTspan1081" dy="16" x="10"><tspan id="SvgjsTspan1082" style="text-decoration:;">WebAPI</tspan></tspan></text></g></g><g id="SvgjsG1083" transform="translate(1279.8833874458876,257.9910717691694)"><path id="SvgjsPath1084" d="M 0 4Q 0 0 4 0L 226 0Q 230 0 230 4L 230 56Q 230 60 226 60L 4 60Q 0 60 0 56Z" stroke="rgba(33,41,48,1)" stroke-width="2" fill-opacity="1" fill="#ffffff"></path><path id="SvgjsPath1085" d="M 0 30L 230 30" stroke="rgba(33,41,48,1)" stroke-width="2" fill="none"></path><path id="SvgjsPath1086" d="M 0 0L 230 0L 230 60L 0 60Z" stroke="none" fill="none"></path><g id="SvgjsG1087"><text id="SvgjsText1088" font-family="微软雅黑" text-anchor="middle" font-size="13px" width="210px" fill="#323232" font-weight="700" align="middle" lineHeight="125%" anchor="middle" family="微软雅黑" size="13px" weight="700" font-style="" opacity="1" y="4.375" transform="rotate(0)"><tspan id="SvgjsTspan1089" dy="16" x="115"><tspan id="SvgjsTspan1090" style="text-decoration:;">Compute Backend</tspan></tspan></text></g><g id="SvgjsG1091"><text id="SvgjsText1092" font-family="微软雅黑" text-anchor="start" font-size="13px" width="210px" fill="#323232" font-weight="400" align="middle" lineHeight="125%" anchor="start" family="微软雅黑" size="13px" weight="400" font-style="" opacity="1" y="34.375" transform="rotate(0)"><tspan id="SvgjsTspan1093" dy="16" x="10"><tspan id="SvgjsTspan1094" style="text-decoration:;">- compute(expr, operand_dict)</tspan></tspan></text></g></g><g id="SvgjsG1095"><path id="SvgjsPath1096" d="M200.00343406593313 153.127435405533L223.79189560439505 153.127435405533L223.79189560439505 153.12743540553302L244.98035714285697 153.12743540553302" stroke="#323232" stroke-width="2" fill="none" marker-end="url(#SvgjsMarker1097)"></path></g><g id="SvgjsG1099"><path id="SvgjsPath1100" d="M438.580357142857 153.12743540553302L454.86881868131866 153.12743540553302L454.86881868131866 171.4910717691694L468.5572802197803 171.4910717691694" stroke="#323232" stroke-width="2" fill="none" marker-end="url(#SvgjsMarker1101)"></path></g><g id="SvgjsG1103" transform="translate(1022.0803571428571,456.9910717691694)"><path id="SvgjsPath1104" d="M 0 4Q 0 0 4 0L 226 0Q 230 0 230 4L 230 59Q 230 63 226 63L 4 63Q 0 63 0 59Z" stroke="rgba(33,41,48,1)" stroke-width="2" fill-opacity="1" fill="#ffffff"></path><path id="SvgjsPath1105" d="M 0 30L 230 30" stroke="rgba(33,41,48,1)" stroke-width="2" fill="none"></path><path id="SvgjsPath1106" d="M 0 0L 230 0L 230 63L 0 63Z" stroke="none" fill="none"></path><g id="SvgjsG1107"><text id="SvgjsText1108" font-family="微软雅黑" text-anchor="middle" font-size="13px" width="210px" fill="#323232" font-weight="700" align="middle" lineHeight="125%" anchor="middle" family="微软雅黑" size="13px" weight="700" font-style="" opacity="1" y="4.375" transform="rotate(0)"><tspan id="SvgjsTspan1109" dy="16" x="115"><tspan id="SvgjsTspan1110" style="text-decoration:;">Loader</tspan></tspan></text></g><g id="SvgjsG1111"><text id="SvgjsText1112" font-family="微软雅黑" text-anchor="start" font-size="13px" width="210px" fill="#323232" font-weight="400" align="middle" lineHeight="125%" anchor="start" family="微软雅黑" size="13px" weight="400" font-style="" opacity="1" y="27.375" transform="rotate(0)"><tspan id="SvgjsTspan1113" dy="16" x="10"><tspan id="SvgjsTspan1114" style="text-decoration:;">实例化因子计算后端</tspan></tspan><tspan id="SvgjsTspan1115" dy="16" x="10"><tspan id="SvgjsTspan1116" style="text-decoration:;">Query构建</tspan></tspan></text></g></g><g id="SvgjsG1117" transform="translate(823.6013361638368,470.5910702432905)"><path id="SvgjsPath1118" d="M 0 18Q 0 0 18 0L 130.4000015258789 0Q 148.4000015258789 0 148.4000015258789 18L 148.4000015258789 17.800003051757812Q 148.4000015258789 35.80000305175781 130.4000015258789 35.80000305175781L 18 35.80000305175781Q 0 35.80000305175781 0 17.800003051757812L 0 18Z" stroke="rgba(33,41,48,1)" stroke-width="2" fill-opacity="1" fill="#ffffff"></path><g id="SvgjsG1119"><text id="SvgjsText1120" font-family="微软雅黑" text-anchor="middle" font-size="13px" width="129px" fill="#323232" font-weight="400" align="middle" lineHeight="125%" anchor="middle" family="微软雅黑" size="13px" weight="400" font-style="" opacity="1" y="7.275001525878906" transform="rotate(0)"><tspan id="SvgjsTspan1121" dy="16" x="74.5"><tspan id="SvgjsTspan1122" style="text-decoration:;">Universe(Pool)</tspan></tspan></text></g></g><g id="SvgjsG1123" transform="translate(823.6013361638368,523.5244020507446)"><path id="SvgjsPath1124" d="M 0 18Q 0 0 18 0L 130.4000015258789 0Q 148.4000015258789 0 148.4000015258789 18L 148.4000015258789 19.466669718424782Q 148.4000015258789 37.46666971842478 130.4000015258789 37.46666971842478L 18 37.46666971842478Q 0 37.46666971842478 0 19.466669718424782L 0 18Z" stroke="rgba(33,41,48,1)" stroke-width="2" fill-opacity="1" fill="#ffffff"></path><g id="SvgjsG1125"><text id="SvgjsText1126" font-family="微软雅黑" text-anchor="middle" font-size="13px" width="129px" fill="#323232" font-weight="400" align="middle" lineHeight="125%" anchor="middle" family="微软雅黑" size="13px" weight="400" font-style="" opacity="1" y="8.108334859212391" transform="rotate(0)"><tspan id="SvgjsTspan1127" dy="16" x="74.5"><tspan id="SvgjsTspan1128" style="text-decoration:;">Date</tspan></tspan></text></g></g><g id="SvgjsG1129" transform="translate(1303.080357142857,476.4910717691694)"><path id="SvgjsPath1130" d="M 0 18Q 0 0 18 0L 42 0Q 60 0 60 18L 60 6Q 60 24 42 24L 18 24Q 0 24 0 6L 0 18Z" stroke="rgba(33,41,48,1)" stroke-width="2" fill-opacity="1" fill="#ffffff"></path><g id="SvgjsG1131"><text id="SvgjsText1132" font-family="微软雅黑" text-anchor="middle" font-size="13px" width="40px" fill="#323232" font-weight="400" align="middle" lineHeight="125%" anchor="middle" family="微软雅黑" size="13px" weight="400" font-style="" opacity="1" y="1.375" transform="rotate(0)"><tspan id="SvgjsTspan1133" dy="16" x="30"><tspan id="SvgjsTspan1134" style="text-decoration:;">Alpha</tspan></tspan></text></g></g><g id="SvgjsG1135" transform="translate(1311.080357142857,519.9910717691694)"><path id="SvgjsPath1136" d="M 0 18Q 0 0 18 0L 56 0Q 74 0 74 18L 74 7Q 74 25 56 25L 18 25Q 0 25 0 7L 0 18Z" stroke="rgba(33,41,48,1)" stroke-width="2" fill-opacity="1" fill="#ffffff"></path><g id="SvgjsG1137"><text id="SvgjsText1138" font-family="微软雅黑" text-anchor="middle" font-size="13px" width="54px" fill="#323232" font-weight="400" align="middle" lineHeight="125%" anchor="middle" family="微软雅黑" size="13px" weight="400" font-style="" opacity="1" y="1.875" transform="rotate(0)"><tspan id="SvgjsTspan1139" dy="16" x="37"><tspan id="SvgjsTspan1140" style="text-decoration:;">Backend</tspan></tspan></text></g></g><g id="SvgjsG1141"><path id="SvgjsPath1142" d="M1137.080357142857 455.9910717691694L1137.080357142857 360.4910717691694L1070.657280219781 360.4910717691694L1070.657280219781 283.9910717691694L1024.657280219781 283.9910717691694L1024.657280219781 267.5910717691694" stroke="#323232" stroke-width="2" fill="none" marker-end="url(#SvgjsMarker1143)"></path><rect id="SvgjsRect1145" width="149" height="16" x="1008.8621100707" y="339.9910717691694" fill="#ffffff"></rect><text id="SvgjsText1146" font-family="微软雅黑" text-anchor="middle" font-size="13px" width="149px" fill="#323232" font-weight="400" align="top" lineHeight="16px" anchor="middle" family="微软雅黑" size="13px" weight="400" font-style="" opacity="1" y="337.3660717691694" transform="rotate(0)"><tspan id="SvgjsTspan1147" dy="16" x="1083.3621100707"><tspan id="SvgjsTspan1148" style="text-decoration:;">Query: 因子名、时间区间</tspan></tspan></text></g><g id="SvgjsG1149"><path id="SvgjsPath1150" d="M1148.080357142857 455.9910717691694L1148.080357142857 387.4910717691694L1394.8833874458876 387.4910717691694L1394.8833874458876 321.5910717691694" stroke="#323232" stroke-width="2" fill="none" marker-end="url(#SvgjsMarker1151)"></path><rect id="SvgjsRect1153" width="209" height="32" x="1165.6818722943726" y="371.4910717691695" fill="#ffffff"></rect><text id="SvgjsText1154" font-family="微软雅黑" text-anchor="middle" font-size="13px" width="209px" fill="#323232" font-weight="400" align="top" lineHeight="16px" anchor="middle" family="微软雅黑" size="13px" weight="400" font-style="" opacity="1" y="368.8660717691695" transform="rotate(0)"><tspan id="SvgjsTspan1155" dy="16" x="1270.1818722943726"><tspan id="SvgjsTspan1156" style="text-decoration:;">Query：alpha表达式，遵从q4l语法</tspan></tspan><tspan id="SvgjsTspan1157" dy="16" x="1270.1818722943726"><tspan id="SvgjsTspan1158" style="text-decoration:;">Data dict:操作数</tspan></tspan></text></g><g id="SvgjsG1159"><path id="SvgjsPath1160" d="M952.6151397515526 264.9910717691694L952.6151397515526 460.9910717691694L1018.4803571428572 460.9910717691694" stroke="#323232" stroke-width="2" fill="none" marker-end="url(#SvgjsMarker1161)"></path><rect id="SvgjsRect1163" width="105" height="32" x="900.1151397515525" y="310.8084345631823" fill="#ffffff"></rect><text id="SvgjsText1164" font-family="微软雅黑" text-anchor="middle" font-size="13px" width="105px" fill="#323232" font-weight="400" align="top" lineHeight="16px" anchor="middle" family="微软雅黑" size="13px" weight="400" font-style="" opacity="1" y="308.1834345631823" transform="rotate(0)"><tspan id="SvgjsTspan1165" dy="16" x="952.6151397515525"><tspan id="SvgjsTspan1166" style="text-decoration:;">pd.dataframe</tspan></tspan><tspan id="SvgjsTspan1167" dy="16" x="952.6151397515525"><tspan id="SvgjsTspan1168" style="text-decoration:;">遵从hxdf行列语义</tspan></tspan></text></g><g id="SvgjsG1169"><path id="SvgjsPath1170" d="M1445.8833874458876 316.49107176916937L1445.8833874458876 461.9910717691694L1255.680357142857 461.9910717691694" stroke="#323232" stroke-width="2" fill="none" marker-end="url(#SvgjsMarker1171)"></path><rect id="SvgjsRect1173" width="113" height="16" x="1389.3833874458876" y="403.9176081466992" fill="#ffffff"></rect><text id="SvgjsText1174" font-family="微软雅黑" text-anchor="middle" font-size="13px" width="113px" fill="#323232" font-weight="400" align="top" lineHeight="16px" anchor="middle" family="微软雅黑" size="13px" weight="400" font-style="" opacity="1" y="401.2926081466992" transform="rotate(0)"><tspan id="SvgjsTspan1175" dy="16" x="1445.8833874458876"><tspan id="SvgjsTspan1176" style="text-decoration:;">计算后的alpha dict</tspan></tspan></text></g><g id="SvgjsG1177"><path id="SvgjsPath1178" d="M973.0013376897157 488.4910717691694L997.0408474162864 488.4910717691694L997.0408474162864 488.9910717691694L1018.4803571428572 488.9910717691694" stroke="#323232" stroke-width="2" fill="none" marker-end="url(#SvgjsMarker1179)"></path></g><g id="SvgjsG1181"><path id="SvgjsPath1182" d="M973.0013376897157 542.257736909957L997.0694634468836 542.257736909957L997.0694634468836 510.99107176916937L1018.5375892040515 510.99107176916937" stroke="#323232" stroke-width="2" fill="none" marker-end="url(#SvgjsMarker1183)"></path></g><g id="SvgjsG1185"><path id="SvgjsPath1186" d="M1302.080357142857 488.4910717691694L1277.580357142857 488.4910717691694L1277.580357142857 488.9910717691694L1255.680357142857 488.9910717691694" stroke="#323232" stroke-width="2" fill="none" marker-end="url(#SvgjsMarker1187)"></path></g><g id="SvgjsG1189"><path id="SvgjsPath1190" d="M1310.080357142857 532.4910717691694L1281.3803563799177 532.4910717691694L1281.3803563799177 507.99107176916937L1255.280355616978 507.99107176916937" stroke="#323232" stroke-width="2" fill="none" marker-end="url(#SvgjsMarker1191)"></path></g><g id="SvgjsG1193" transform="translate(1048.7470238095236,553.3244051025024)"><path id="SvgjsPath1194" d="M 0 0L 199.33333333333348 0L 199.33333333333348 99.66666666666697L 0 99.66666666666697Z" stroke="rgba(33,41,48,1)" stroke-width="2" fill-opacity="1" fill="#ffffff"></path><g id="SvgjsG1195"><text id="SvgjsText1196" font-family="微软雅黑" text-anchor="middle" font-size="13px" width="180px" fill="#323232" font-weight="400" align="middle" lineHeight="125%" anchor="middle" family="微软雅黑" size="13px" weight="400" font-style="" opacity="1" y="-1.791666666666515" transform="rotate(0)"><tspan id="SvgjsTspan1197" dy="16" x="100"><tspan id="SvgjsTspan1198" style="text-decoration:;">Dataframe</tspan></tspan><tspan id="SvgjsTspan1199" dy="16" x="100"><tspan id="SvgjsTspan1200" style="text-decoration:;">遵从qlib数据集格式</tspan></tspan><tspan id="SvgjsTspan1201" dy="16" x="100"><tspan id="SvgjsTspan1202" style="text-decoration:;">整个数据集为1个df</tspan></tspan><tspan id="SvgjsTspan1203" dy="16" x="100"><tspan id="SvgjsTspan1204" style="text-decoration:;">可被存储为disk cache</tspan></tspan><tspan id="SvgjsTspan1205" dy="16" x="100"><tspan id="SvgjsTspan1206" style="text-decoration:;">disk cache 拥有metadata，可</tspan></tspan><tspan id="SvgjsTspan1207" dy="16" x="100"><tspan id="SvgjsTspan1208" style="text-decoration:;">以判断时间</tspan></tspan></text></g></g><g id="SvgjsG1209"><path id="SvgjsPath1210" d="M1137.080357142857 520.9910717691694L1137.080357142857 536.6577384358359L1148.4136904761906 536.6577384358359L1148.4136904761906 549.7244051025024" stroke="#323232" stroke-width="2" fill="none" marker-end="url(#SvgjsMarker1211)"></path></g><g id="SvgjsG1213" transform="translate(844.5513369267762,693.4910717691694)"><path id="SvgjsPath1214" d="M 0 4Q 0 0 4 0L 102.50000000000011 0Q 106.50000000000011 0 106.50000000000011 4L 106.50000000000011 56Q 106.50000000000011 60 102.50000000000011 60L 4 60Q 0 60 0 56Z" stroke="rgba(33,41,48,1)" stroke-width="2" fill-opacity="1" fill="#ffffff"></path><path id="SvgjsPath1215" d="M 0 30L 106.50000000000011 30" stroke="rgba(33,41,48,1)" stroke-width="2" fill="none"></path><path id="SvgjsPath1216" d="M 0 0L 106.50000000000011 0L 106.50000000000011 60L 0 60Z" stroke="none" fill="none"></path><g id="SvgjsG1217"><text id="SvgjsText1218" font-family="微软雅黑" text-anchor="middle" font-size="13px" width="87px" fill="#323232" font-weight="700" align="middle" lineHeight="125%" anchor="middle" family="微软雅黑" size="13px" weight="700" font-style="" opacity="1" y="-4.125" transform="rotate(0)"><tspan id="SvgjsTspan1219" dy="16" x="53.5"><tspan id="SvgjsTspan1220" style="text-decoration:;">Post-</tspan></tspan><tspan id="SvgjsTspan1221" dy="16" x="53.5"><tspan id="SvgjsTspan1222" style="text-decoration:;">processor</tspan></tspan></text></g><g id="SvgjsG1223"><text id="SvgjsText1224" font-family="微软雅黑" text-anchor="start" font-size="13px" width="87px" fill="#323232" font-weight="400" align="middle" lineHeight="125%" anchor="start" family="微软雅黑" size="13px" weight="400" font-style="" opacity="1" y="34.375" transform="rotate(0)"><tspan id="SvgjsTspan1225" dy="16" x="10"><tspan id="SvgjsTspan1226" style="text-decoration:;">数据后处理</tspan></tspan></text></g></g><g id="SvgjsG1227" transform="translate(1056.4136904761904,865.5744051025032)"><path id="SvgjsPath1228" d="M 0 0L 161.33333333333326 0L 161.33333333333326 57.83333333333326L 0 57.83333333333326Z" stroke="rgba(33,41,48,1)" stroke-width="2" fill-opacity="1" fill="#ffffff"></path><g id="SvgjsG1229"><text id="SvgjsText1230" font-family="微软雅黑" text-anchor="middle" font-size="13px" width="142px" fill="#323232" font-weight="400" align="middle" lineHeight="125%" anchor="middle" family="微软雅黑" size="13px" weight="400" font-style="" opacity="1" y="1.7916666666666288" transform="rotate(0)"><tspan id="SvgjsTspan1231" dy="16" x="81"><tspan id="SvgjsTspan1232" style="text-decoration:;">Dataframe package</tspan></tspan><tspan id="SvgjsTspan1233" dy="16" x="81"><tspan id="SvgjsTspan1234" style="text-decoration:;">三份dataframe</tspan></tspan><tspan id="SvgjsTspan1235" dy="16" x="81"><tspan id="SvgjsTspan1236" style="text-decoration:;">可用作memory cache</tspan></tspan></text></g></g><g id="SvgjsG1237" transform="translate(1334.4136904761897,622.9910717691694)"><path id="SvgjsPath1238" d="M 0 4Q 0 0 4 0L 285.3333333333335 0Q 289.3333333333335 0 289.3333333333335 4L 289.3333333333335 91Q 289.3333333333335 95 285.3333333333335 95L 4 95Q 0 95 0 91Z" stroke="rgba(33,41,48,1)" stroke-width="2" fill-opacity="1" fill="#ffffff"></path><path id="SvgjsPath1239" d="M 0 30L 289.3333333333335 30" stroke="rgba(33,41,48,1)" stroke-width="2" fill="none"></path><path id="SvgjsPath1240" d="M 0 0L 289.3333333333335 0L 289.3333333333335 95L 0 95Z" stroke="none" fill="none"></path><g id="SvgjsG1241"><text id="SvgjsText1242" font-family="微软雅黑" text-anchor="middle" font-size="13px" width="270px" fill="#323232" font-weight="700" align="middle" lineHeight="125%" anchor="middle" family="微软雅黑" size="13px" weight="700" font-style="" opacity="1" y="4.375" transform="rotate(0)"><tspan id="SvgjsTspan1243" dy="16" x="145"><tspan id="SvgjsTspan1244" style="text-decoration:;">DataSampler</tspan></tspan></text></g><g id="SvgjsG1245"><text id="SvgjsText1246" font-family="微软雅黑" text-anchor="start" font-size="13px" width="270px" fill="#323232" font-weight="400" align="middle" lineHeight="125%" anchor="start" family="微软雅黑" size="13px" weight="400" font-style="" opacity="1" y="27.375" transform="rotate(0)"><tspan id="SvgjsTspan1247" dy="16" x="10"><tspan id="SvgjsTspan1248" style="text-decoration:;">针对采样需求(e.g. window trick),构建对</tspan></tspan><tspan id="SvgjsTspan1249" dy="16" x="10"><tspan id="SvgjsTspan1250" style="text-decoration:;">dataframes的不同views</tspan></tspan><tspan id="SvgjsTspan1251" dy="16" x="10"><tspan id="SvgjsTspan1252" style="text-decoration:;">提供__len__, __getitem__需求</tspan></tspan><tspan id="SvgjsTspan1253" dy="16" x="10"><tspan id="SvgjsTspan1254" style="text-decoration:;">通过filter筛选合格样本</tspan></tspan></text></g></g><g id="SvgjsG1255" transform="translate(1702.7470238095232,864.4910717691698)"><path id="SvgjsPath1256" d="M 0 4Q 0 0 4 0L 226 0Q 230 0 230 4L 230 56Q 230 60 226 60L 4 60Q 0 60 0 56Z" stroke="rgba(33,41,48,1)" stroke-width="2" fill-opacity="1" fill="#ffffff"></path><path id="SvgjsPath1257" d="M 0 30L 230 30" stroke="rgba(33,41,48,1)" stroke-width="2" fill="none"></path><path id="SvgjsPath1258" d="M 0 0L 230 0L 230 60L 0 60Z" stroke="none" fill="none"></path><g id="SvgjsG1259"><text id="SvgjsText1260" font-family="微软雅黑" text-anchor="middle" font-size="13px" width="210px" fill="#323232" font-weight="700" align="middle" lineHeight="125%" anchor="middle" family="微软雅黑" size="13px" weight="700" font-style="" opacity="1" y="4.375" transform="rotate(0)"><tspan id="SvgjsTspan1261" dy="16" x="115"><tspan id="SvgjsTspan1262" style="text-decoration:;">torch.DataLoader</tspan></tspan></text></g><g id="SvgjsG1263"><text id="SvgjsText1264" font-family="微软雅黑" text-anchor="start" font-size="13px" width="210px" fill="#323232" font-weight="400" align="middle" lineHeight="125%" anchor="start" family="微软雅黑" size="13px" weight="400" font-style="" opacity="1" y="34.375" transform="rotate(0)"><tspan id="SvgjsTspan1265" dy="16" x="10"><tspan id="SvgjsTspan1266" style="text-decoration:;">__lens__, __iter__, shuffle()</tspan></tspan></text></g></g><g id="SvgjsG1267"><path id="SvgjsPath1268" d="M1218.7470238095236 894.4910717691698L1290.9136904761901 894.4910717691698L1290.9136904761901 894.4910717691698L1360.4803571428565 894.4910717691698" stroke="#323232" stroke-width="2" fill="none" marker-end="url(#SvgjsMarker1269)"></path></g><g id="SvgjsG1271" transform="translate(998.6803575243268,691.9910717691694)"><path id="SvgjsPath1272" d="M 0 4Q 0 0 4 0L 272.79999923706055 0Q 276.79999923706055 0 276.79999923706055 4L 276.79999923706055 59Q 276.79999923706055 63 272.79999923706055 63L 4 63Q 0 63 0 59Z" stroke="rgba(33,41,48,1)" stroke-width="2" fill-opacity="1" fill="#ffffff"></path><path id="SvgjsPath1273" d="M 0 30L 276.79999923706055 30" stroke="rgba(33,41,48,1)" stroke-width="2" fill="none"></path><path id="SvgjsPath1274" d="M 0 0L 276.79999923706055 0L 276.79999923706055 63L 0 63Z" stroke="none" fill="none"></path><g id="SvgjsG1275"><text id="SvgjsText1276" font-family="微软雅黑" text-anchor="middle" font-size="13px" width="257px" fill="#323232" font-weight="700" align="middle" lineHeight="125%" anchor="middle" family="微软雅黑" size="13px" weight="700" font-style="" opacity="1" y="4.375" transform="rotate(0)"><tspan id="SvgjsTspan1277" dy="16" x="138.5"><tspan id="SvgjsTspan1278" style="text-decoration:;">DataHandler</tspan></tspan></text></g><g id="SvgjsG1279"><text id="SvgjsText1280" font-family="微软雅黑" text-anchor="start" font-size="13px" width="257px" fill="#323232" font-weight="400" align="middle" lineHeight="125%" anchor="start" family="微软雅黑" size="13px" weight="400" font-style="" opacity="1" y="27.375" transform="rotate(0)"><tspan id="SvgjsTspan1281" dy="16" x="10"><tspan id="SvgjsTspan1282" style="text-decoration:;">train, valid, test数据切分(prepare, fetch)</tspan></tspan><tspan id="SvgjsTspan1283" dy="16" x="10"><tspan id="SvgjsTspan1284" style="text-decoration:;">分段进行数据后处理(infer, learn)</tspan></tspan></text></g></g><g id="SvgjsG1285"><path id="SvgjsPath1286" d="M952.0513369267763 723.4910717691694L974.8658472255515 723.4910717691694L974.8658472255515 722.9910717691694L995.0803575243268 722.9910717691694" stroke="#323232" stroke-width="2" fill="none" marker-end="url(#SvgjsMarker1287)"></path></g><g id="SvgjsG1289"><path id="SvgjsPath1290" d="M1148.4136904761906 653.9910717691694L1148.4136904761906 672.4910717691694L1137.080357142858 672.4910717691694L1137.080357142858 688.3910717691693" stroke="#323232" stroke-width="2" fill="none" marker-end="url(#SvgjsMarker1291)"></path></g><g id="SvgjsG1293"><path id="SvgjsPath1294" d="M1137.080357142858 755.9910717691694L1137.080357142858 810.2827384358363L1137.0803571428569 810.2827384358363L1137.0803571428569 861.9744051025032" stroke="#323232" stroke-width="2" fill="none" marker-end="url(#SvgjsMarker1295)"></path></g><g id="SvgjsG1297" transform="translate(673.6013361638375,210.9910717691693)"><path id="SvgjsPath1298" d="M 8 8Q 8 0 16 0L 141.99999999999932 0Q 149.99999999999932 0 149.99999999999932 8L 149.99999999999932 96.36363636363635Q 149.99999999999932 104.36363636363635 141.99999999999932 104.36363636363635L 141.99999999999932 104.36363636363635" stroke="rgba(33,41,48,1)" stroke-width="2" fill-opacity="1" fill="#ffffff"></path><path id="SvgjsPath1299" d="M 0 16Q 0 8 8 8L 133.99999999999932 8Q 141.99999999999932 8 141.99999999999932 16L 141.99999999999932 104.36363636363635Q 141.99999999999932 112.36363636363635 133.99999999999932 112.36363636363635L 8 112.36363636363635Q 0 112.36363636363635 0 104.36363636363635L 0 16Z" stroke="rgba(33,41,48,1)" stroke-width="2" fill-opacity="1" fill="#ffffff"></path><path id="SvgjsPath1300" d="M 0 4Q 0 0 4 0L 145.99999999999932 0Q 149.99999999999932 0 149.99999999999932 4L 149.99999999999932 108.36363636363635Q 149.99999999999932 112.36363636363635 145.99999999999932 112.36363636363635L 4 112.36363636363635Q 0 112.36363636363635 0 108.36363636363635Z" stroke="none" fill="none"></path><g id="SvgjsG1301"><text id="SvgjsText1302" font-family="微软雅黑" text-anchor="middle" font-size="13px" width="110px" fill="#323232" font-weight="400" align="top" lineHeight="125%" anchor="middle" family="微软雅黑" size="13px" weight="400" font-style="" opacity="1" y="5.375" transform="rotate(0)"><tspan id="SvgjsTspan1303" dy="16" x="71"><tspan id="SvgjsTspan1304" style="text-decoration:;font-weight: bold;">Adaptor</tspan></tspan><tspan id="SvgjsTspan1305" dy="16" x="71"><tspan id="SvgjsTspan1306" style="text-decoration:;">读取因子值</tspan></tspan><tspan id="SvgjsTspan1307" dy="16" x="71"><tspan id="SvgjsTspan1308" style="text-decoration:;">读取某段时间内的</tspan></tspan><tspan id="SvgjsTspan1309" dy="16" x="71"><tspan id="SvgjsTspan1310" style="text-decoration:;">universe</tspan></tspan><tspan id="SvgjsTspan1311" dy="16" x="71"><tspan id="SvgjsTspan1312" style="text-decoration:;"> </tspan></tspan></text></g></g><g id="SvgjsG1313"><path id="SvgjsPath1314" d="M619.1572802197802 171.4910717691694L646.0908466533467 171.4910717691694L646.0908466533467 260.01414655371195L670.4244130869132 260.01414655371195" stroke="#323232" stroke-width="2" fill="none" marker-end="url(#SvgjsMarker1315)"></path></g><g id="SvgjsG1317"><path id="SvgjsPath1318" d="M579.1572802197802 410.7603025384002L642.3495879120885 410.7603025384002L642.3495879120885 275.06796124055415L670.4244130869132 275.06796124055415" stroke="#323232" stroke-width="2" fill="none" marker-end="url(#SvgjsMarker1319)"></path></g><g id="SvgjsG1321"><path id="SvgjsPath1322" d="M824.3833874458877 248.69433234174357L841.8542499167502 248.69433234174357L841.8542499167502 191.15323393133156L867.6342032967033 191.15323393133156" stroke="#323232" stroke-width="2" fill="none" marker-end="url(#SvgjsMarker1323)"></path></g><g id="SvgjsG1325" transform="translate(1364.0803571428564,845.4910717691698)"><path id="SvgjsPath1326" d="M 0 4Q 0 0 4 0L 226 0Q 230 0 230 4L 230 94Q 230 98 226 98L 4 98Q 0 98 0 94Z" stroke="rgba(33,41,48,1)" stroke-width="2" fill-opacity="1" fill="#ffffff"></path><path id="SvgjsPath1327" d="M 0 33L 230 33" stroke="rgba(33,41,48,1)" stroke-width="2" fill="none"></path><path id="SvgjsPath1328" d="M 0 0L 230 0L 230 98L 0 98Z" stroke="none" fill="none"></path><g id="SvgjsG1329"><text id="SvgjsText1330" font-family="微软雅黑" text-anchor="middle" font-size="13px" width="210px" fill="#323232" font-weight="700" align="middle" lineHeight="125%" anchor="middle" family="微软雅黑" size="13px" weight="700" font-style="" opacity="1" y="-2.625" transform="rotate(0)"><tspan id="SvgjsTspan1331" dy="16" x="115"><tspan id="SvgjsTspan1332" style="text-decoration:;">Dataset</tspan></tspan><tspan id="SvgjsTspan1333" dy="16" x="115"><tspan id="SvgjsTspan1334" style="text-decoration:;">暴露给user的接口</tspan></tspan></text></g><g id="SvgjsG1335"><text id="SvgjsText1336" font-family="微软雅黑" text-anchor="start" font-size="13px" width="210px" fill="#323232" font-weight="400" align="middle" lineHeight="125%" anchor="start" family="微软雅黑" size="13px" weight="400" font-style="" opacity="1" y="30.375" transform="rotate(0)"><tspan id="SvgjsTspan1337" dy="16" x="10"><tspan id="SvgjsTspan1338" style="text-decoration:;">- prepare</tspan></tspan><tspan id="SvgjsTspan1339" dy="16" x="10"><tspan id="SvgjsTspan1340" style="text-decoration:;">- setup</tspan></tspan><tspan id="SvgjsTspan1341" dy="16" x="10"><tspan id="SvgjsTspan1342" style="text-decoration:;">- train_loader</tspan></tspan><tspan id="SvgjsTspan1343" dy="16" x="10"><tspan id="SvgjsTspan1344" style="text-decoration:;">- ...</tspan></tspan></text></g></g><g id="SvgjsG1345"><path id="SvgjsPath1346" d="M1479.0803571428564 718.9910717691694L1479.0803571428564 781.7410717691696L1479.0803571428564 781.7410717691696L1479.0803571428564 841.8910717691698" stroke="#323232" stroke-width="2" fill="none" marker-end="url(#SvgjsMarker1347)"></path></g><g id="SvgjsG1349"><path id="SvgjsPath1350" d="M1595.0803571428564 894.4910717691698L1648.4136904761897 894.4910717691698L1648.4136904761897 894.4910717691698L1699.1470238095233 894.4910717691698" stroke="#323232" stroke-width="2" fill="none" marker-end="url(#SvgjsMarker1351)"></path></g><g id="SvgjsG1353"><path id="SvgjsPath1354" d="M1216.080357142857 874.9910717691694L1301.080357142857 874.9910717691694L1301.080357142857 689.9910717691694L1331.4803571428572 689.9910717691694" stroke="#323232" stroke-width="2" fill="none" marker-end="url(#SvgjsMarker1355)"></path></g></svg>